<mxfile host="app.diagrams.net" modified="2024-05-13T11:07:16.016Z" agent="Mozilla/5.0 (X11; Linux x86_64) AppleWebKit/537.36 (KHTML, like Gecko) Chrome/124.0.0.0 Safari/537.36" etag="jeDr_1UMJMvASTkVW7B4" version="24.3.1" type="device">
  <diagram name="Page-1" id="X2urbaJjveiixVecSfGX">
    <mxGraphModel dx="1118" dy="751" grid="0" gridSize="10" guides="1" tooltips="1" connect="1" arrows="1" fold="1" page="0" pageScale="1" pageWidth="850" pageHeight="1100" math="0" shadow="0">
      <root>
        <mxCell id="0" />
        <mxCell id="1" parent="0" />
        <mxCell id="hpOOcTG64gZ_BMfFnNzc-1" value="AWS Cloud" style="points=[[0,0],[0.25,0],[0.5,0],[0.75,0],[1,0],[1,0.25],[1,0.5],[1,0.75],[1,1],[0.75,1],[0.5,1],[0.25,1],[0,1],[0,0.75],[0,0.5],[0,0.25]];outlineConnect=0;gradientColor=none;html=1;whiteSpace=wrap;fontSize=12;fontStyle=0;container=1;pointerEvents=0;collapsible=0;recursiveResize=0;shape=mxgraph.aws4.group;grIcon=mxgraph.aws4.group_aws_cloud_alt;strokeColor=#232F3E;fillColor=none;verticalAlign=top;align=left;spacingLeft=30;fontColor=#232F3E;dashed=0;" parent="1" vertex="1">
          <mxGeometry x="160" y="80" width="720" height="570" as="geometry" />
        </mxCell>
        <mxCell id="hpOOcTG64gZ_BMfFnNzc-2" value="us-east-2" style="points=[[0,0],[0.25,0],[0.5,0],[0.75,0],[1,0],[1,0.25],[1,0.5],[1,0.75],[1,1],[0.75,1],[0.5,1],[0.25,1],[0,1],[0,0.75],[0,0.5],[0,0.25]];outlineConnect=0;gradientColor=none;html=1;whiteSpace=wrap;fontSize=12;fontStyle=0;container=1;pointerEvents=0;collapsible=0;recursiveResize=0;shape=mxgraph.aws4.group;grIcon=mxgraph.aws4.group_region;strokeColor=#00A4A6;fillColor=none;verticalAlign=top;align=left;spacingLeft=30;fontColor=#147EBA;dashed=1;" parent="hpOOcTG64gZ_BMfFnNzc-1" vertex="1">
          <mxGeometry x="40" y="40" width="640" height="360" as="geometry" />
        </mxCell>
        <mxCell id="hpOOcTG64gZ_BMfFnNzc-4" value="IoT Core" style="fillColor=none;strokeColor=#5A6C86;dashed=1;verticalAlign=top;fontStyle=0;fontColor=#5A6C86;whiteSpace=wrap;html=1;" parent="hpOOcTG64gZ_BMfFnNzc-2" vertex="1">
          <mxGeometry x="40" y="40" width="280" height="160" as="geometry" />
        </mxCell>
        <mxCell id="hpOOcTG64gZ_BMfFnNzc-5" value="Topic" style="sketch=0;outlineConnect=0;fontColor=#232F3E;gradientColor=none;fillColor=#7AA116;strokeColor=none;dashed=0;verticalLabelPosition=bottom;verticalAlign=top;align=center;html=1;fontSize=12;fontStyle=0;aspect=fixed;pointerEvents=1;shape=mxgraph.aws4.topic_2;" parent="hpOOcTG64gZ_BMfFnNzc-2" vertex="1">
          <mxGeometry x="80" y="81" width="53" height="78" as="geometry" />
        </mxCell>
        <mxCell id="hpOOcTG64gZ_BMfFnNzc-6" value="Rule" style="sketch=0;outlineConnect=0;fontColor=#232F3E;gradientColor=none;fillColor=#7AA116;strokeColor=none;dashed=0;verticalLabelPosition=bottom;verticalAlign=top;align=center;html=1;fontSize=12;fontStyle=0;aspect=fixed;pointerEvents=1;shape=mxgraph.aws4.rule;" parent="hpOOcTG64gZ_BMfFnNzc-2" vertex="1">
          <mxGeometry x="240" y="81" width="46" height="78" as="geometry" />
        </mxCell>
        <mxCell id="hpOOcTG64gZ_BMfFnNzc-7" value="" style="edgeStyle=orthogonalEdgeStyle;html=1;endArrow=openThin;elbow=vertical;startArrow=none;endFill=0;strokeColor=#545B64;rounded=0;" parent="hpOOcTG64gZ_BMfFnNzc-2" source="hpOOcTG64gZ_BMfFnNzc-5" target="hpOOcTG64gZ_BMfFnNzc-6" edge="1">
          <mxGeometry width="100" relative="1" as="geometry">
            <mxPoint x="210" y="330" as="sourcePoint" />
            <mxPoint x="310" y="330" as="targetPoint" />
          </mxGeometry>
        </mxCell>
        <mxCell id="hpOOcTG64gZ_BMfFnNzc-3" value="" style="sketch=0;points=[[0,0,0],[0.25,0,0],[0.5,0,0],[0.75,0,0],[1,0,0],[0,1,0],[0.25,1,0],[0.5,1,0],[0.75,1,0],[1,1,0],[0,0.25,0],[0,0.5,0],[0,0.75,0],[1,0.25,0],[1,0.5,0],[1,0.75,0]];outlineConnect=0;fontColor=#232F3E;fillColor=#7AA116;strokeColor=#ffffff;dashed=0;verticalLabelPosition=bottom;verticalAlign=top;align=center;html=1;fontSize=12;fontStyle=0;aspect=fixed;shape=mxgraph.aws4.resourceIcon;resIcon=mxgraph.aws4.iot_core;" parent="hpOOcTG64gZ_BMfFnNzc-2" vertex="1">
          <mxGeometry x="40" y="40" width="20" height="20" as="geometry" />
        </mxCell>
        <mxCell id="hpOOcTG64gZ_BMfFnNzc-18" value="2" style="ellipse;whiteSpace=wrap;html=1;aspect=fixed;" parent="hpOOcTG64gZ_BMfFnNzc-2" vertex="1">
          <mxGeometry x="170.5" y="90" width="19" height="19" as="geometry" />
        </mxCell>
        <mxCell id="hpOOcTG64gZ_BMfFnNzc-19" value="3" style="ellipse;whiteSpace=wrap;html=1;aspect=fixed;" parent="hpOOcTG64gZ_BMfFnNzc-2" vertex="1">
          <mxGeometry x="330" y="90" width="19" height="19" as="geometry" />
        </mxCell>
        <mxCell id="hpOOcTG64gZ_BMfFnNzc-13" value="S3" style="sketch=0;points=[[0,0,0],[0.25,0,0],[0.5,0,0],[0.75,0,0],[1,0,0],[0,1,0],[0.25,1,0],[0.5,1,0],[0.75,1,0],[1,1,0],[0,0.25,0],[0,0.5,0],[0,0.75,0],[1,0.25,0],[1,0.5,0],[1,0.75,0]];outlineConnect=0;fontColor=#232F3E;fillColor=#7AA116;strokeColor=#ffffff;dashed=0;verticalLabelPosition=bottom;verticalAlign=top;align=center;html=1;fontSize=12;fontStyle=0;aspect=fixed;shape=mxgraph.aws4.resourceIcon;resIcon=mxgraph.aws4.s3;" parent="hpOOcTG64gZ_BMfFnNzc-2" vertex="1">
          <mxGeometry x="520" y="81" width="78" height="78" as="geometry" />
        </mxCell>
        <mxCell id="hpOOcTG64gZ_BMfFnNzc-10" value="Kinesis Data Firehose" style="sketch=0;points=[[0,0,0],[0.25,0,0],[0.5,0,0],[0.75,0,0],[1,0,0],[0,1,0],[0.25,1,0],[0.5,1,0],[0.75,1,0],[1,1,0],[0,0.25,0],[0,0.5,0],[0,0.75,0],[1,0.25,0],[1,0.5,0],[1,0.75,0]];outlineConnect=0;fontColor=#232F3E;fillColor=#8C4FFF;strokeColor=#ffffff;dashed=0;verticalLabelPosition=bottom;verticalAlign=top;align=center;html=1;fontSize=12;fontStyle=0;aspect=fixed;shape=mxgraph.aws4.resourceIcon;resIcon=mxgraph.aws4.kinesis_data_firehose;" parent="hpOOcTG64gZ_BMfFnNzc-2" vertex="1">
          <mxGeometry x="360" y="81" width="78" height="78" as="geometry" />
        </mxCell>
        <mxCell id="hpOOcTG64gZ_BMfFnNzc-12" value="Lambda Function" style="sketch=0;points=[[0,0,0],[0.25,0,0],[0.5,0,0],[0.75,0,0],[1,0,0],[0,1,0],[0.25,1,0],[0.5,1,0],[0.75,1,0],[1,1,0],[0,0.25,0],[0,0.5,0],[0,0.75,0],[1,0.25,0],[1,0.5,0],[1,0.75,0]];outlineConnect=0;fontColor=#232F3E;fillColor=#ED7100;strokeColor=#ffffff;dashed=0;verticalLabelPosition=bottom;verticalAlign=top;align=center;html=1;fontSize=12;fontStyle=0;aspect=fixed;shape=mxgraph.aws4.resourceIcon;resIcon=mxgraph.aws4.lambda;" parent="hpOOcTG64gZ_BMfFnNzc-2" vertex="1">
          <mxGeometry x="360" y="240" width="78" height="78" as="geometry" />
        </mxCell>
        <mxCell id="hpOOcTG64gZ_BMfFnNzc-20" value="4" style="ellipse;whiteSpace=wrap;html=1;aspect=fixed;" parent="hpOOcTG64gZ_BMfFnNzc-2" vertex="1">
          <mxGeometry x="408" y="200" width="20" height="20" as="geometry" />
        </mxCell>
        <mxCell id="hpOOcTG64gZ_BMfFnNzc-21" value="5" style="ellipse;whiteSpace=wrap;html=1;aspect=fixed;" parent="hpOOcTG64gZ_BMfFnNzc-2" vertex="1">
          <mxGeometry x="470" y="90" width="19" height="19" as="geometry" />
        </mxCell>
        <mxCell id="hpOOcTG64gZ_BMfFnNzc-11" value="" style="edgeStyle=orthogonalEdgeStyle;rounded=0;orthogonalLoop=1;jettySize=auto;html=1;" parent="hpOOcTG64gZ_BMfFnNzc-2" source="hpOOcTG64gZ_BMfFnNzc-6" target="hpOOcTG64gZ_BMfFnNzc-10" edge="1">
          <mxGeometry relative="1" as="geometry" />
        </mxCell>
        <mxCell id="hpOOcTG64gZ_BMfFnNzc-15" value="" style="endArrow=classic;html=1;rounded=0;exitX=1;exitY=0.5;exitDx=0;exitDy=0;exitPerimeter=0;" parent="hpOOcTG64gZ_BMfFnNzc-2" source="hpOOcTG64gZ_BMfFnNzc-10" target="hpOOcTG64gZ_BMfFnNzc-13" edge="1">
          <mxGeometry width="50" height="50" relative="1" as="geometry">
            <mxPoint x="200" y="360" as="sourcePoint" />
            <mxPoint x="250" y="310" as="targetPoint" />
          </mxGeometry>
        </mxCell>
        <mxCell id="hpOOcTG64gZ_BMfFnNzc-14" value="" style="endArrow=classic;startArrow=classic;html=1;rounded=0;" parent="hpOOcTG64gZ_BMfFnNzc-2" source="hpOOcTG64gZ_BMfFnNzc-12" edge="1">
          <mxGeometry width="50" height="50" relative="1" as="geometry">
            <mxPoint x="200" y="360" as="sourcePoint" />
            <mxPoint x="399" y="186" as="targetPoint" />
          </mxGeometry>
        </mxCell>
        <mxCell id="GJ7r6ig7V7oXe7ZnuiHB-2" value="Certificate Manager" style="sketch=0;points=[[0,0,0],[0.25,0,0],[0.5,0,0],[0.75,0,0],[1,0,0],[0,1,0],[0.25,1,0],[0.5,1,0],[0.75,1,0],[1,1,0],[0,0.25,0],[0,0.5,0],[0,0.75,0],[1,0.25,0],[1,0.5,0],[1,0.75,0]];outlineConnect=0;fontColor=#232F3E;fillColor=#DD344C;strokeColor=#ffffff;dashed=0;verticalLabelPosition=bottom;verticalAlign=top;align=center;html=1;fontSize=12;fontStyle=0;aspect=fixed;shape=mxgraph.aws4.resourceIcon;resIcon=mxgraph.aws4.certificate_manager_3;" parent="hpOOcTG64gZ_BMfFnNzc-2" vertex="1">
          <mxGeometry x="40" y="240" width="78" height="78" as="geometry" />
        </mxCell>
        <mxCell id="IyLtYT2DL9FsM4f-1B0j-1" value="5" style="ellipse;whiteSpace=wrap;html=1;aspect=fixed;" vertex="1" parent="hpOOcTG64gZ_BMfFnNzc-2">
          <mxGeometry x="128" y="269" width="20" height="20" as="geometry" />
        </mxCell>
        <mxCell id="hpOOcTG64gZ_BMfFnNzc-17" value="1" style="ellipse;whiteSpace=wrap;html=1;aspect=fixed;" parent="hpOOcTG64gZ_BMfFnNzc-1" vertex="1">
          <mxGeometry x="10" y="130" width="19" height="19" as="geometry" />
        </mxCell>
        <mxCell id="GJ7r6ig7V7oXe7ZnuiHB-1" value="Route 53" style="sketch=0;points=[[0,0,0],[0.25,0,0],[0.5,0,0],[0.75,0,0],[1,0,0],[0,1,0],[0.25,1,0],[0.5,1,0],[0.75,1,0],[1,1,0],[0,0.25,0],[0,0.5,0],[0,0.75,0],[1,0.25,0],[1,0.5,0],[1,0.75,0]];outlineConnect=0;fontColor=#232F3E;fillColor=#8C4FFF;strokeColor=#ffffff;dashed=0;verticalLabelPosition=bottom;verticalAlign=top;align=center;html=1;fontSize=12;fontStyle=0;aspect=fixed;shape=mxgraph.aws4.resourceIcon;resIcon=mxgraph.aws4.route_53;" parent="hpOOcTG64gZ_BMfFnNzc-1" vertex="1">
          <mxGeometry x="40" y="440" width="78" height="78" as="geometry" />
        </mxCell>
        <mxCell id="IyLtYT2DL9FsM4f-1B0j-2" value="6" style="ellipse;whiteSpace=wrap;html=1;aspect=fixed;" vertex="1" parent="hpOOcTG64gZ_BMfFnNzc-1">
          <mxGeometry x="130" y="469" width="20" height="20" as="geometry" />
        </mxCell>
        <mxCell id="hpOOcTG64gZ_BMfFnNzc-8" value="Simulated using&lt;br&gt;MQTT client application&lt;br&gt;(Eclipse Mosquitto)" style="sketch=0;outlineConnect=0;fontColor=#232F3E;gradientColor=none;fillColor=#7AA116;strokeColor=none;dashed=0;verticalLabelPosition=bottom;verticalAlign=top;align=center;html=1;fontSize=12;fontStyle=0;aspect=fixed;pointerEvents=1;shape=mxgraph.aws4.hardware_board;" parent="1" vertex="1">
          <mxGeometry x="40" y="201" width="78" height="78" as="geometry" />
        </mxCell>
        <mxCell id="hpOOcTG64gZ_BMfFnNzc-9" value="" style="edgeStyle=orthogonalEdgeStyle;html=1;endArrow=openThin;elbow=vertical;startArrow=none;endFill=0;strokeColor=#545B64;rounded=0;" parent="1" source="hpOOcTG64gZ_BMfFnNzc-8" target="hpOOcTG64gZ_BMfFnNzc-5" edge="1">
          <mxGeometry width="100" relative="1" as="geometry">
            <mxPoint x="370" y="450" as="sourcePoint" />
            <mxPoint x="470" y="450" as="targetPoint" />
          </mxGeometry>
        </mxCell>
      </root>
    </mxGraphModel>
  </diagram>
</mxfile>
